<?xml version="1.0" encoding="UTF-8"?>
<svg id="Layer_2" data-name="Layer 2" xmlns="http://www.w3.org/2000/svg" viewBox="0 0 984.27 250.03">
  <defs>
    <style>
      .cls-1 {
        fill: #111415;
      }

      .cls-1, .cls-2 {
        stroke-width: 0px;
      }

      .cls-2 {
        fill: #cbaf82;
      }
    </style>
  </defs>
  <g id="art">
    <g>
      <path class="cls-1" d="M44.17,63.37c0,52.97,114.83,30.9,114.83,113.5,0,44.14-38.49,73.15-85.81,73.15-28.71,0-55.52-9.14-70.04-20.81l-3.16-57.07h3.47c7.57,37.2,33.44,70.51,70.67,70.51,24.92,0,43.22-12.18,43.22-36.46,0-64.63-113.57-37.2-113.57-115.4C3.79,49.5,39.12,22.39,82.02,22.39c23.98,0,45.43,6.94,63.1,18.6l.63,49.82h-2.84c-7.57-37.2-29.97-61.36-59.62-61.36-24.29,0-39.12,13.12-39.12,33.93Z"/>
      <path class="cls-1" d="M456.17,75.35c-21.45,0-34.39,21.75-43.85,54.86l1.26-54.86h-1.26l-69.4,17.66v1.26l18.61,15.76v119.81c0,9.67-4.13,11.84-14.28,12.86-1.12.11-2.25.11-3.37,0-10.39-1.02-14.53-3.18-14.53-12.86v-103.1c0-32.47-16.09-51.39-46.06-51.39-25.87,0-48.27,16.23-58.99,31.05V0h-1.26l-67.83,17.66v1.26l18.61,15.77v195.17c0,11.04-5.68,12.3-19.24,13.24v3.78h88.96v-3.78c-13.57-.95-19.24-2.21-19.24-13.24v-118.23c9.15-5.05,19.24-8.51,30.29-8.51,17.35,0,23.98,9.46,23.98,26.48v100.26c0,11.04-5.68,12.3-19.24,13.24v3.78h178.87v-3.78c-17.98-1.89-25.87-3.15-25.87-14.19v-95.22c13.57-11.67,31.86-12.93,51.42-12.93h4.94v-41.3c-2.84-2.21-5.89-4.1-12.51-4.1Z"/>
      <path class="cls-1" d="M545.87,81.66h40.7v11.35h-40.7v104.05c0,18.92,8.83,27.43,24.61,27.43,6.94,0,15.14-2.21,22.08-6.94l.95,1.58c-10.41,16.4-28.71,30.9-52.37,30.9-27.45,0-46.38-16.08-46.38-50.13v-106.88h-18.61v-3.78c22.71-9.77,52.05-31.84,67.83-52.97h1.89v45.4Z"/>
      <path class="cls-1" d="M655.02,229.85c0,11.04,5.36,12.3,19.24,13.24v3.78h-89.28v-3.78c13.88-.95,19.24-2.21,19.24-13.24V34.68l-18.61-15.77v-1.26L653.76,0h1.26v229.85Z"/>
      <path class="cls-1" d="M676.79,234.26l-1.89-47.61h3.16c7.57,34.05,29.97,56.32,57.42,56.32,17.35,0,30.29-8.08,30.29-26.37,0-42.88-88.65-24.91-88.65-87.02,0-33.42,29.66-54.23,63.73-54.23,20.19,0,36.91,5.36,50.16,13.87v40.36h-2.84c-3.79-23.02-23.34-47.18-48.58-47.18-16.4,0-26.81,7.76-26.81,23.21,0,41.62,89.91,24.59,89.91,87.02,0,35-29.65,57.38-67.83,57.38-21.77,0-44.8-6.31-58.05-15.76Z"/>
      <path class="cls-1" d="M871.17,81.66h40.7v11.35h-40.7v104.05c0,18.92,8.83,27.43,24.61,27.43,6.94,0,15.14-2.21,22.08-6.94l.95,1.58c-10.41,16.4-28.71,30.9-52.37,30.9-27.45,0-46.37-16.08-46.37-50.13v-106.88h-18.61v-3.78c22.71-9.77,52.05-31.84,67.83-52.97h1.89v45.4Z"/>
      <path class="cls-2" d="M954.61,190.12c16.41,0,29.66,12.61,29.66,29.95s-13.25,29.95-29.66,29.95-29.97-12.61-29.97-29.95,13.25-29.95,29.97-29.95Z"/>
    </g>
  </g>
</svg>